# xmcd
#
# Track frame offsets:
#	150
#	1167
#	14905
#	19410
#	36599
#	45018
#	59769
#	66486
#	79740
#	83898
#	100904
#	107489
#	124695
#	138245
#	147920
#	164552
#	167775
#	177387
#	183871
#	200372
#	202134
#	216241
#	218755
#	240495
#	241893
#	262451
#	265163
#	282873
#	284537
#
# Disc length: 3878 seconds
#
# Revision: 1
# Processed by: cddbd v1.5.2PL0 Copyright (c) Steve Scherf et al.
# Submitted via: audiograbber 1.83.01
#
DISCID=bd0f241d
DTITLE=Rhöner Säuwänst - Live durch die Rhön
DYEAR=1900
DGENRE=Bluegrass
TTITLE0=Anfangsunfall
TTITLE1=Schwankt auf Tour
TTITLE2=Begrüßung der Gäste
TTITLE3=Heimatabend
TTITLE4=Von einem der nicht politisch
TTITLE5=Politisch nicht korrekt
TTITLE6=Erlebnis im Geburtshaus
TTITLE7=Schimpflied
TTITLE8=Vorrede
TTITLE9=Man Glaubt Halt Immer Nur Das
TTITLE10=Wie man Gerüchte effektvoll ei
TTITLE11=Wir bauen ein Gerücht
TTITLE12=Rotwurst und Kartoffelsupp
TTITLE13=Erotische Lieder
TTITLE14=Das Lied vom Bürsten
TTITLE15=Was man zu jemanden sagt wenn
TTITLE16=Dubhorn
TTITLE17=Über alten Hausabend
TTITLE18=Edeltraut
TTITLE19=Wenn man immer nur die Wahrhei
TTITLE20=Man muss ja net imma nur die W
TTITLE21=Üba die Schönsten Lieder us de
TTITLE22=Mein Dorf
TTITLE23=Vom Umweltschutz und Vorehelig
TTITLE24=Ballade Gebirkshuhn
TTITLE25=Dorfliche Integrationsversuche
TTITLE26=Krieg im Neubaugebiet
TTITLE27=Vorrede
TTITLE28=Altrhönischer Hirtensang
EXTD=
EXTT0=
EXTT1=
EXTT2=
EXTT3=
EXTT4=
EXTT5=
EXTT6=
EXTT7=
EXTT8=
EXTT9=
EXTT10=
EXTT11=
EXTT12=
EXTT13=
EXTT14=
EXTT15=
EXTT16=
EXTT17=
EXTT18=
EXTT19=
EXTT20=
EXTT21=
EXTT22=
EXTT23=
EXTT24=
EXTT25=
EXTT26=
EXTT27=
EXTT28=
PLAYORDER=
